<svg id="visual" viewBox="0 0 1400 250" width="1400" height="250" xmlns="http://www.w3.org/2000/svg" xmlns:xlink="http://www.w3.org/1999/xlink" version="1.1"><path d="M0 169L38.8 171.7C77.7 174.3 155.3 179.7 233.2 175.3C311 171 389 157 466.8 160.5C544.7 164 622.3 185 700 193.3C777.7 201.7 855.3 197.3 933.2 195.2C1011 193 1089 193 1166.8 188C1244.7 183 1322.3 173 1361.2 168L1400 163L1400 251L1361.2 251C1322.3 251 1244.7 251 1166.8 251C1089 251 1011 251 933.2 251C855.3 251 777.7 251 700 251C622.3 251 544.7 251 466.8 251C389 251 311 251 233.2 251C155.3 251 77.7 251 38.8 251L0 251Z" fill="#DC9D58" stroke-linecap="round" stroke-linejoin="miter"></path></svg>