<svg id="Layer_1" data-name="Layer 1" xmlns="http://www.w3.org/2000/svg" viewBox="0 0 2000 570"><path d="M902.38,8.06V160.43c-19.1-10.61-39-18.67-71.3-18.67-78.94,0-144.3,63.66-144.3,158.73S748.32,458.8,822.59,458.8c33.11,0,62-10.18,81.91-28.86v22.49h104V8.06Zm140.06,444.37h107V148.12h-107Zm490.21-310.67c-34.8,0-66.21,12.31-87.85,37.77-20.8-27.59-50.94-37.77-81.49-37.77-27.17,0-55.18,10.61-75.13,28.86v-22.5H1183.35V452.43h107V277.57c0-23.34,15.27-39.89,37.77-39.89,23.77,0,36.5,16.55,36.5,38.62V452.43h105.68V277.15c0-22.92,16.55-39.47,38.2-39.47,23.77,0,36.07,17,36.07,38.62V452.43h104.41V261c0-69.61-47.11-119.26-116.29-119.26ZM1035.23,61.12c0,34.38,26.31,60.69,60.69,60.69S1157,95.5,1157,61.12,1130.3,0,1095.92,0s-60.69,26.74-60.69,61.12ZM446.55,300.49c0-38.2,23.77-64.94,57.72-64.94S562,262.29,562,300.49s-23.77,64.94-57.73,64.94-57.72-26.74-57.72-64.94Zm-106.95,0c0,90.83,70.45,158.74,164.67,158.74S669,390.47,669,300.49c0-90.83-70.45-158.73-164.68-158.73S339.6,210.51,339.6,300.49Zm1437.94,0c0-38.2,23.77-64.94,57.72-64.94S1893,262.29,1893,300.49s-23.77,64.94-57.73,64.94-57.72-26.74-57.72-64.94Zm-107,0c0,90.83,70.45,158.74,164.67,158.74s164.68-68.76,164.68-158.74c0-90.83-70.45-158.73-164.68-158.73s-164.67,68.75-164.67,158.73Zm-876.86,0c0-38.2,23.77-64.94,57.72-64.94s57.72,26.74,57.72,64.94-23.76,64.94-57.72,64.94-57.72-26.74-57.72-64.94ZM106.17,570V440.13c18.67,10.18,39,18.67,71.3,18.67,78.94,0,144.3-63.66,144.3-158.73S260.23,141.76,186,141.76c-33.11,0-62,10.18-81.92,28.86v-22.5H.06V570ZM214.82,300.49c0,38.2-23.77,64.94-57.72,64.94s-57.73-26.74-57.73-64.94,23.77-64.94,57.73-64.94S214.82,262.29,214.82,300.49Z" fill="#794cf8"/></svg>